<?xml version="1.0" standalone="no"?><svg xmlns="http://www.w3.org/2000/svg" preserveAspectRatio="none" viewBox="0 0 1440 320"><path fill="#7b9edb" fill-opacity="1" d="M0,192L40,181.3C80,171,160,149,240,160C320,171,400,213,480,202.7C560,192,640,128,720,128C800,128,880,192,960,197.3C1040,203,1120,149,1200,144C1280,139,1360,181,1400,202.7L1440,224L1440,320L1400,320C1360,320,1280,320,1200,320C1120,320,1040,320,960,320C880,320,800,320,720,320C640,320,560,320,480,320C400,320,320,320,240,320C160,320,80,320,40,320L0,320Z"></path></svg>